<svg class="icon" viewBox="0 0 1024 1024" xmlns="http://www.w3.org/2000/svg" width="200" height="200"><defs><style/></defs><path d="M272.863 531.653c1.034 3.443 5.443 5.873 7.584 7.925 4.194-1.02 6.065-1.21 7.717-1.917 20.695-8.853 41.083-18.13 57.39-34.439 7.12-7.12 15.219-13.254 22.557-20.171 1.418-1.338 1.37-4.232 1.998-6.408-2.485-.339-4.972-.914-7.455-.9-1 .005-1.997 1.296-2.987 2.012-25.16 18.195-48.55 39.441-80.708 45.443-2.65.495-6.737 6.324-6.096 8.455zm341.935-20.485H579.36V495.1h32.146v-15h-32.192v-13.364h33.445v-14.061h-54.524v74.54h56.562l.001-16.047zm-78.101-76.182h-18.852v47.044c-8.67-11.875-15.77-24.202-22.784-36.578-7.192-12.69-9.702-13.725-24.924-9.846v91.726H489v-45.21c7.471 9.948 14.5 19.998 18.98 31.08 5.68 14.043 14.915 17.865 28.717 13.951v-92.167z"/><path d="M409.187 487.953c-.97-10.767-4.077-20.193-11.829-28.725-12.909-14.21-29.727-14.066-46.394-14.811-2.73-.122-8.33 4.553-8.04 5.352 3.08 8.469-3.679 10.719-8.327 13.826-19.01 12.7-36.998 27.51-60.596 31.302-5.343.859-10.29 2.668-9.301 8.883 1.124 7.068 7.588 7.092 12.439 5.426 9.475-3.254 19.42-6.43 27.568-11.987 16.38-11.171 31.81-23.76 47.383-36.08 8.607-6.81 15.925-5.576 21.19 3.85 1.025 1.835 3.944 3.587 6.063 3.677 11.862.501 18.703 8.495 16.492 20.325-2.31 12.364-10.154 20.892-20.768 26.571-9.01 4.822-18.505 8.214-28.452 1.06-3.324-2.391-6.734-1.399-6.654 3.718.184 11.786 12.517 20.576 23.852 17.09 2.633-.81 5.327-1.477 7.872-2.51 17.322-7.03 39.93-24.52 37.502-46.967z"/><path d="M392.373 423.559c-.175-12.093-1.26-24.443-4.244-36.097-1.322-5.167-7.524-11.3-12.748-12.866-21.92-6.576-44.518-7.004-66.905-2.138-3.433.746-5.983 5.552-8.94 8.48 3.767 1.612 8.662 5.604 11.115 4.441 13.701-6.493 27.788-2.928 41.65-2.895 18.862.044 29.172 12.088 27.104 30.963-.676 6.18-3.562 11.461-10.56 12.03-18.167 1.474-36.356 2.698-54.55 3.775-9.03.535-14.833-4.011-15.991-12.942-.732-5.647.156-11.49.123-17.244-.03-5.39 1.18-12.877-6.098-13.244-6.759-.34-7.785 6.567-7.765 12.359.029 8.268.085 16.54.355 24.803.424 12.926 10.69 21.172 23.438 19.146 2.189-.348 4.481-.05 9.083-.05-3.57 3.901-5.28 7.053-7.918 8.429-11.273 5.877-22.158 13.063-35.975 11.447-4.8-.56-10.471.965-8.843 7.111.765 2.89 6.473 6.331 9.865 6.253 5.897-.139 11.671-3.112 17.607-4.37 17.056-3.611 29.524-13.646 39.69-27.268 1.389-1.862 3.965-3.906 6.068-3.992 11.54-.472 23.109-.214 34.661-.491 10.156-.245 19.902-7.086 19.778-15.64z"/><path d="M310.29 406.68c.461 7.21 6.228 5.06 10.576 4.864 10.27-.466 20.537-1.015 30.805-1.53.554.783 1.108 1.565 1.66 2.348 3.025-2.241 8.495-4.363 8.612-6.747.336-6.833-5.407-6.443-10.6-6.241-10.334.401-20.694.738-31.025.44-5.504-.159-10.483-.24-10.028 6.866zm-98.178 105.147c-1.829-15.714-4.55-31.372-5.425-47.135-1.087-19.61-1.547-39.274 4.845-58.52 1.246-3.752-1.504-10.19-4.43-13.707-7.944-9.549-19.531-10.286-30.937-9.728-14.007.685-27.969 2.32-41.977 2.904-11.688.488-15.942 3.038-17.162 14.705-.64 6.121 1.108 12.562 2.245 18.773.65 3.54 3.03 6.85 3.285 10.363 1.777 24.292-.344 48.175-8.866 71.197-.648 1.753-2.325 3.126-3.564 4.661l.152-.106c-.974 2.24-2.87 4.544-2.717 6.705.268 3.777 1.795 7.464 2.794 11.19 3.487-1.127 7.307-1.716 10.328-3.59 1.7-1.055 2.427-4.15 2.995-6.473 3.017-12.326 5.844-24.7 8.737-37.056l2.74-1.112c1.505 3.09 3.664 6.042 4.362 9.306 1.008 4.712-.14 10.14 1.726 14.331 1.354 3.04 6.099 4.57 9.332 6.773.422-3.153 1.441-6.358 1.165-9.449-1.586-17.774.484-23.466 17.206-23.536 4.568-.02 9.21 1.054 13.68.503 2.782-.344 5.302-2.797 7.941-4.303-2.136-2.544-3.803-6.138-6.532-7.357-3.135-1.4-7.617.21-10.748-1.194-2.531-1.135-5.316-4.742-5.427-7.36-.106-2.505 2.643-6.86 4.912-7.456 16.467-4.327 23.884 2.978 23.454 19.812-.467 18.282.605 36.632 1.801 54.9.178 2.713 4.722 5.14 7.246 7.699 2.359-2.805 5.23-5.343 6.882-8.516.984-1.895.237-4.806-.043-7.224zm-63.523-49.738c-4.777.196-9.526 1.052-14.941 1.69-.173-12.074 1.717-14.485 12.808-16.694 4.673-.932 8.547-.734 9.383 5.233.8 5.7-.51 9.496-7.25 9.771zm47.479-34.085c-2.755 10.857-10.505 4.158-18.5 4.727 1.609-5.118 2.545-8.51 3.755-11.802.836-2.274 3.108-4.533 2.869-6.581-.484-4.131-2.241-8.113-3.473-12.156-2.79 3.08-5.837 5.975-8.26 9.321-1.16 1.603-1.625 4.075-1.564 6.129.186 6.255.915 14.142-6.136 15.623-9.22 1.936-19.89 3.21-28.468.358-10.12-3.366-7.195-15.066-7.114-23.55.07-7.335 5.766-11.656 12.545-12.623 12.204-1.74 24.528-3.058 36.839-3.483 9.363-.325 18.294 9.6 18.534 19.427.117 4.872.155 9.946-1.027 14.61z"/><path d="M97.154 486.487c-1.903 4.581.054 11.478 1.986 16.736 1.884 5.128 6.466 5.36 10.854 2.211-1.096-5.568-1.551-11.379-3.441-16.677-1.64-4.59-7.26-7.423-9.4-2.27zm-37.877-60.815c2.723 2.675 3.904 8.476 3.343 12.505-.576 4.139-3.874 8.052-6.457 11.73-6.449 9.18-3.796 24.84 5.156 27.912 4.883 1.676 9.979 2.851 15.063 3.799 8.75 1.63 28.05-9.677 30.93-17.924.396-1.134.805-2.53.497-3.601-2.246-7.807-3.424-16.27-7.334-23.169-6.033-10.643-6.121-12.987 3.843-19.797 2.199-1.503 4.165-5.226 4.085-7.86-.356-11.834-9.755-15.828-20.262-8.996 4.629 7.57 2.58 16.645-5.974 20.744-3.273 1.569-9.108.948-12.143-1.097-2.64-1.779-4.905-7.563-3.988-10.552 3.416-11.133 7.81-21.808 22.093-23.65 6.76-.872 7.969-5.816 3.593-10.24-4.605-4.655-17.301-5.248-21.057-.056-6.247 8.637-12.36 17.577-16.97 27.14-5.318 11.034-3.27 14.416 5.582 23.112zM70.19 447.57c8.173-11.155 13.22-14.554 19.186-9.396 6.9 5.965 8.655 14.575 4.823 22.452-2.035 4.184-8.046 6.434-11.528 9.013-6.48-1.734-11.265-1.79-14.405-4.089-8.77-6.422-1.468-13.352 1.924-17.98zm73.954-34.17c-.746 6.775 5.318 16.058 9.281 14.8 2.061-.653 3.254-4.042 6.209-8.054l-10.778-13.214c-1.644 2.148-4.458 4.167-4.712 6.467zm37.116 80.425c-5.617-.192-11.475 1.032-16.865 2.805-2.06.677-4.51 4.618-4.215 6.708.273 1.929 3.986 3.37 4.48 3.743 7.225-.394 12.182-.051 16.793-1.155 2.564-.614 4.551-3.638 6.799-5.576-2.327-2.3-4.591-6.443-6.993-6.525zM63.012 492.32c-.183-1.477-1.56-3.28-2.897-3.974-.88-.457-3.24.383-3.931 1.356-6.648 9.373-10.899 19.736-11.115 31.337-.034 1.877 2.11 5.21 3.527 5.37 2.18.246 5.882-1.064 6.703-2.782 3.466-7.248 6.106-14.891 9.046-22.391l-1.701-.679c.17-2.751.702-5.548.368-8.236zm17.062-.378c-1.705-.123-4.566 1.96-5.2 3.7-1.334 3.657-1.542 7.724-2.244 11.817.728 4.439 1.092 9.053 2.37 13.398.585 1.993 2.963 3.46 4.528 5.164 1.77-1.821 4.912-3.53 5.073-5.485.664-8.077.696-16.24.29-24.339-.08-1.597-3.042-4.127-4.817-4.255z"/><path d="M110.126 505.341l-.133.093.01.05c.023-.023.275-.25.275-.25l-.251.227c.03-.04.066-.079.1-.12zm574.388 130.397h13.553v-13.575h-13.553v13.575zm-277.496-33.249l17.672-7.595v54.238h17.155V580.37c-22.518-3.23-38.66 6.879-34.827 22.119zm-58.902 33.247h13.662v-13.3h-13.662v13.3zm338.768-166.942l-1.052-16.723H623.79v16.275c7.342 1.098 16.511-.13 19.569 3.624 3.362 4.127 1.212 12.835 1.264 19.549.089 11.786.024 23.573.024 35.638h20.928V470.01c7.413-.425 14.214-.812 21.31-1.216zm-135.507 156.83c-.367-9.827-6.025-17.888-16.13-19.71-7.661-1.38-15.77-.273-24.385-.273.829-3.243 1.377-7.85 3.188-11.891 2.79-6.231 12.46-9.019 15.13-4.077 5.154 9.546 12.499 5.812 22.064 6.008-3.528-5.34-5.31-10.175-8.76-12.89-14.856-11.696-40.681-4.75-45.749 13.34-3.116 11.126-2.784 23.526-2.237 35.272.459 9.818 7.331 16.81 17.058 17.78 8.556.852 17.708.104 26.02-2.11 9.684-2.58 14.184-11.173 13.8-21.45zm-17.982 3.672c-.533 6.337-3.264 11.829-11.301 12.143-6.551.256-11.511-6.46-11.036-14.229.494-8.094 5.695-13.386 12.57-12.786 6.446.562 10.22 5.978 9.767 14.872zM240.6 608.593c2.837 12.195 5.811 24.385 8.453 36.648.964 4.476 1.581 7.955 7.72 7.902 5.559-.049 8.31-1.674 9.61-7.14 1.407-5.919 3.701-11.628 5.608-17.428l1.921.032c2.141 6.626 3.743 13.51 6.705 19.745 1.097 2.31 5.367 4.176 8.242 4.25 2.435.063 6.58-2.292 7.157-4.361 3.73-13.379 6.69-26.971 9.93-40.607-20.921-5.079-12.582 14.074-19.632 21.263-1.666-5.099-3.566-9.874-4.75-14.82-1.25-5.228-3.602-7.597-9.445-7.513-5.81.083-7.143 3.116-8.179 7.71-1.034 4.59-2.68 9.044-4.842 16.125-1.789-6.644-2.961-10.672-3.953-14.745-2.455-10.086-3.718-10.742-14.544-7.061zm-197.376-1.365v1.84l11.76 42.9c9.726 3.113 14.581-.112 16.208-9.368.863-4.91 3.102-9.578 5.525-16.737 2.944 9.185 4.61 15.978 7.409 22.266.994 2.232 4.666 4.32 7.254 4.503 2.682.188 7.493-1.463 7.998-3.258 3.85-13.692 6.875-27.617 10.188-41.607-21.132-5.362-12.402 14.46-19.72 21.156-1.839-5.724-2.939-11.527-5.604-16.488-1.42-2.64-5.491-5.127-8.474-5.261-2.439-.11-6.089 2.849-7.344 5.371-2.386 4.8-3.443 10.259-5.39 16.531-5.67-9.322-.335-27.31-19.81-21.848zm765.795-39.158c58.882-.276 117.763-.883 176.644-1.338v-5.522c-10.694-.239-21.388-.727-32.08-.678-298.721 1.357-597.443 2.77-896.164 4.17-3.92.018-7.839.001-11.933.001-.739 10.227 6.414 6.59 9.98 6.577 251.184-.93 502.369-2.03 753.553-3.21zm-666.981 40.373l10.258 43.912c13.058 1.045 13.005 1.028 16.438-9.613 1.566-4.855 3.388-9.628 5.804-16.44l9.314 27.96c4.791-1.635 12.254-2.16 13.11-4.817 4.364-13.524 7.019-27.6 10.268-41.465-9.221-2.97-14.49-1.34-15.264 8.53-.314 4.001-2.052 7.891-3.859 14.426-2.351-7.69-4.142-12.566-5.296-17.59-1.157-5.031-3.712-6.844-8.972-6.758-4.934.081-7.093 1.906-8.179 6.509-1.21 5.13-3.097 10.103-4.689 15.143-2.368-4.163-3.177-8.04-4.035-11.906-2.332-10.513-3.273-11.045-14.898-7.891zm441.622 24.899c2.742 5.701 5.742 11.577 10.476 13.863 12.283 5.932 25.26 4.833 37.116-1.763 11.443-6.366 11.86-20.213 1.416-28.203-1.79-1.37-3.831-2.414-5.954-3.732 12.16-8.311 15.787-15.396 11.49-23.276-5.39-9.881-15.318-11.762-25.23-12.277-10.075-.523-19.77 1.33-25.665 10.95-1.296 2.117-1.49 4.91-2.404 8.144 8.326-.188 16.074 3.696 20.99-5.98 1.078-2.122 7.35-3.14 10.5-2.204 2.678.795 5.771 5.033 5.977 7.94.207 2.93-2.177 7.299-4.751 8.88-3.975 2.443-9.077 3.05-14.155 4.57v7.295c4.741 1.212 9.558 1.305 12.81 3.607 3.029 2.144 6.168 6.736 5.987 10.072-.18 3.321-3.88 8.099-7.053 9.14-3.103 1.02-9.646-.754-10.934-3.24-5.298-10.23-12.657-5.371-20.617-3.786zm243.27-173.93c-2.119-6.58-5.279-8.428-12.224-8.92-10.645-.753-16.442 2.415-18.326 13.123-.892 5.07-3.107 9.908-4.736 14.846-5.21 15.789-10.426 31.575-15.87 48.06 4.03.198 6.751.285 9.464.477 6.695.47 13.037.757 13.71-8.709.091-1.29 3.417-3.24 5.336-3.353 6.96-.406 13.957-.16 20.755-.16l2.993 11.178h21.438c-7.703-22.578-15.43-44.46-22.54-66.542zm-21.38 38.319l5.096-22.095c.659-.036 1.317-.07 1.976-.107l6.399 22.202H805.55zm-43.414 8.186h-38.294V487.22h35.326v-19.051h-35.387v-16.07h36.513v-18.534h-57.409v93.332h59.252l-.001-20.98zm153.359-2.907c.179-9.113-2.749-16.333-11.56-19.988-7.323-3.037-14.972-5.316-22.195-8.556-2.648-1.188-5.354-3.844-6.346-6.47-.511-1.353 2.51-5.695 4.236-5.88 3.189-.34 8.552.386 9.59 2.416 5.7 11.148 14.72 6.643 23.158 6.813-2.78-18.018-17.11-26.185-36.98-21.872-12.533 2.72-18.462 8.846-19.308 19.946-.818 10.723 4.623 18.36 16.332 22.536 4.891 1.745 10.283 2.426 14.771 4.846 3.32 1.79 6.328 5.264 7.852 8.706.569 1.285-3.369 6.506-5.423 6.613-4.51.232-12.347-.525-13.165-2.861-4.384-12.508-13.164-7.2-21.422-7.129-.966 11.125 4.006 17.858 12.224 21.932 11.936 5.916 24.555 5.333 36.432.169 8.663-3.766 11.622-11.944 11.804-21.222zM750.92 643.55c9.369 9.95 26.144 9.597 37.028-.778-.046-1.204-.092-2.408-.14-3.613-4.031.204-8.193-.155-12.067.735-7.033 1.616-14.427 2.36-17.85-4.752-1.962-4.077-1.567-11.132.783-15.025 3.887-6.434 11.332-7.475 17.876-3.454 5.66 3.477 8.736 1.158 12.18-2.74-11.037-10.996-27.36-11.68-37.316-1.906-8.709 8.552-8.929 22.577-.495 31.533zm232.314-134.198H947.28v-15.07h32.356v-15.507H947.28v-13.662h35.933V451.03h-54.96v74.564h54.98v-16.242zm-125.988 95.916c-12.781-.176-22.868 9.559-23.018 22.214-.153 12.85 9.454 22.754 22.274 22.965 13.048.214 23.89-10.118 23.84-22.721-.046-12.355-10.255-22.28-23.096-22.458zm-.68 35.335c-7.193-.22-12.031-5.812-11.692-13.514.307-6.95 5.648-12.327 12.212-12.298 6.79.03 12.624 6.226 12.472 13.242-.158 7.19-5.94 12.785-12.992 12.57zm69.076 8.255h8.905c0-8.88-.741-17.211.364-25.29.443-3.238 4.948-5.92 7.604-8.855 2.156 3.238 5.783 6.308 6.174 9.746.92 8.081.294 16.337.294 24.591h9.655c0-8.957-.732-17.563.382-25.924.411-3.084 5.176-5.588 7.954-8.356 1.977 3.06 5.335 5.98 5.66 9.207.818 8.13.27 16.398.27 24.875h9.051c0-9.205-.022-17.751.008-26.298.022-6.696-.515-14.17-7.79-15.998-5.061-1.272-11.104 1.36-17.603 2.389-4.395-.9-9.622-2.601-14.923-2.878-5.224-.272-10.523.9-16.006 1.462v41.329z"/></svg>